<?xml version="1.0" encoding="UTF-8" standalone="no"?>
<!-- Created with Inkscape (http://www.inkscape.org/) -->

<svg
   width="695.94501"
   height="695.94501"
   viewBox="0 0 184.13545 184.13545"
   version="1.1"
   id="svg1"
   sodipodi:docname="logo-square.svg"
   inkscape:version="1.4.2 (ebf0e940d0, 2025-05-08)"
   inkscape:export-filename="logo-square.png"
   inkscape:export-xdpi="96.010002"
   inkscape:export-ydpi="96.010002"
   xmlns:inkscape="http://www.inkscape.org/namespaces/inkscape"
   xmlns:sodipodi="http://sodipodi.sourceforge.net/DTD/sodipodi-0.dtd"
   xmlns:xlink="http://www.w3.org/1999/xlink"
   xmlns="http://www.w3.org/2000/svg"
   xmlns:svg="http://www.w3.org/2000/svg">
  <sodipodi:namedview
     id="namedview1"
     pagecolor="#ffffff"
     bordercolor="#000000"
     borderopacity="0.25"
     inkscape:showpageshadow="2"
     inkscape:pageopacity="0.0"
     inkscape:pagecheckerboard="0"
     inkscape:deskcolor="#d1d1d1"
     inkscape:document-units="px"
     inkscape:zoom="1.44"
     inkscape:cx="329.51389"
     inkscape:cy="169.44444"
     inkscape:window-width="1920"
     inkscape:window-height="1008"
     inkscape:window-x="0"
     inkscape:window-y="0"
     inkscape:window-maximized="1"
     inkscape:current-layer="layer1" />
  <defs
     id="defs1">
    <linearGradient
       id="linearGradient1"
       inkscape:collect="always">
      <stop
         style="stop-color:#c84dff;stop-opacity:1;"
         offset="0"
         id="stop1" />
      <stop
         style="stop-color:#ad00fa;stop-opacity:1;"
         offset="0.20007552"
         id="stop3" />
      <stop
         style="stop-color:#c84dff;stop-opacity:1;"
         offset="0.36412308"
         id="stop4" />
      <stop
         style="stop-color:#8800c4;stop-opacity:1;"
         offset="0.49973571"
         id="stop5" />
      <stop
         style="stop-color:#c84dff;stop-opacity:1;"
         offset="0.82178771"
         id="stop6" />
      <stop
         style="stop-color:#58007e;stop-opacity:1;"
         offset="1"
         id="stop2" />
    </linearGradient>
    <linearGradient
       inkscape:collect="always"
       xlink:href="#linearGradient1"
       id="linearGradient2"
       x1="25.938683"
       y1="80.4786"
       x2="25.641027"
       y2="115.3044"
       gradientUnits="userSpaceOnUse" />
    <linearGradient
       inkscape:collect="always"
       xlink:href="#linearGradient1"
       id="linearGradient3"
       gradientUnits="userSpaceOnUse"
       x1="25.938683"
       y1="80.4786"
       x2="25.641027"
       y2="115.3044" />
    <linearGradient
       inkscape:collect="always"
       xlink:href="#linearGradient1"
       id="linearGradient4"
       gradientUnits="userSpaceOnUse"
       x1="25.938683"
       y1="80.4786"
       x2="25.641027"
       y2="115.3044" />
    <linearGradient
       inkscape:collect="always"
       xlink:href="#linearGradient1"
       id="linearGradient5"
       gradientUnits="userSpaceOnUse"
       x1="25.938683"
       y1="80.4786"
       x2="25.641027"
       y2="115.3044" />
    <linearGradient
       inkscape:collect="always"
       xlink:href="#linearGradient1"
       id="linearGradient6"
       gradientUnits="userSpaceOnUse"
       x1="25.938683"
       y1="80.4786"
       x2="25.641027"
       y2="115.3044" />
  </defs>
  <g
     inkscape:label="Layer 1"
     inkscape:groupmode="layer"
     id="layer1"
     transform="translate(1.7166583e-5,54.181246)">
    <g
       id="g9"
       style="display:none"
       transform="translate(-8.8234898,-66.083592)">
      <g
         id="g7">
        <text
           xml:space="preserve"
           style="font-size:22.5778px;text-align:center;letter-spacing:0px;word-spacing:0px;writing-mode:lr-tb;direction:ltr;text-anchor:middle;fill:#000000;stroke-width:0.264583"
           x="39.283604"
           y="115.8997"
           id="text1"><tspan
             sodipodi:role="line"
             style="font-style:normal;font-variant:normal;font-weight:normal;font-stretch:normal;font-size:50.8px;font-family:'Luckiest Guy';-inkscape-font-specification:'Luckiest Guy';text-align:center;letter-spacing:0px;text-anchor:middle;stroke-width:0.264583"
             x="39.283604"
             y="115.8997"
             id="tspan5">T</tspan></text>
        <text
           xml:space="preserve"
           style="font-size:22.5778px;text-align:center;letter-spacing:0px;word-spacing:0px;writing-mode:lr-tb;direction:ltr;text-anchor:middle;fill:#000000;stroke-width:0.264583"
           x="79.859314"
           y="115.52763"
           id="text1-1"><tspan
             sodipodi:role="line"
             style="font-style:normal;font-variant:normal;font-weight:normal;font-stretch:normal;font-size:50.8px;font-family:'Luckiest Guy';-inkscape-font-specification:'Luckiest Guy';text-align:center;letter-spacing:0px;text-anchor:middle;stroke-width:0.264583"
             x="79.859314"
             y="115.52763"
             id="tspan5-8">J</tspan></text>
        <text
           xml:space="preserve"
           style="font-size:22.5778px;text-align:center;letter-spacing:0px;word-spacing:0px;writing-mode:lr-tb;direction:ltr;text-anchor:middle;fill:#000000;stroke-width:0.264583"
           x="122.32855"
           y="115.8997"
           id="text1-28"><tspan
             sodipodi:role="line"
             style="font-style:normal;font-variant:normal;font-weight:normal;font-stretch:normal;font-size:50.8px;font-family:'Luckiest Guy';-inkscape-font-specification:'Luckiest Guy';text-align:center;letter-spacing:0px;text-anchor:middle;stroke-width:0.264583"
             x="122.32855"
             y="115.8997"
             id="tspan5-9">A</tspan></text>
        <text
           xml:space="preserve"
           style="font-size:22.5778px;text-align:center;letter-spacing:0px;word-spacing:0px;writing-mode:lr-tb;direction:ltr;text-anchor:middle;fill:#000000;stroke-width:0.264583"
           x="161.78362"
           y="116.07333"
           id="text1-2"><tspan
             sodipodi:role="line"
             style="font-style:normal;font-variant:normal;font-weight:normal;font-stretch:normal;font-size:50.8px;font-family:'Luckiest Guy';-inkscape-font-specification:'Luckiest Guy';text-align:center;letter-spacing:0px;text-anchor:middle;stroke-width:0.264583"
             x="161.78362"
             y="116.07333"
             id="tspan5-3">S</tspan></text>
      </g>
      <g
         id="g8"
         style="stroke:none">
        <text
           xml:space="preserve"
           style="font-size:22.5778px;text-align:center;letter-spacing:0px;word-spacing:0px;writing-mode:lr-tb;direction:ltr;text-anchor:middle;fill:#000000;stroke:none;stroke-width:0.264583"
           x="39.344238"
           y="128.46199"
           id="text1-3-2"><tspan
             sodipodi:role="line"
             style="font-style:normal;font-variant:normal;font-weight:normal;font-stretch:normal;font-size:11.2889px;font-family:'Luckiest Guy';-inkscape-font-specification:'Luckiest Guy';text-align:center;text-anchor:middle;stroke:none;stroke-width:0.264583"
             x="39.344238"
             y="128.46199"
             id="tspan5-2-9">TANGO</tspan></text>
        <text
           xml:space="preserve"
           style="font-size:22.5778px;text-align:center;letter-spacing:0px;word-spacing:0px;writing-mode:lr-tb;direction:ltr;text-anchor:middle;fill:#000000;stroke:none;stroke-width:0.264583"
           x="79.264"
           y="128.3297"
           id="text1-3"><tspan
             sodipodi:role="line"
             style="font-style:normal;font-variant:normal;font-weight:normal;font-stretch:normal;font-size:11.2889px;font-family:'Luckiest Guy';-inkscape-font-specification:'Luckiest Guy';text-align:center;text-anchor:middle;stroke:none;stroke-width:0.264583"
             x="79.264"
             y="128.3297"
             id="tspan5-2">JULIET</tspan></text>
        <text
           xml:space="preserve"
           style="font-size:22.5778px;text-align:center;letter-spacing:0px;word-spacing:0px;writing-mode:lr-tb;direction:ltr;text-anchor:middle;fill:#000000;stroke:none;stroke-width:0.264583"
           x="122.30926"
           y="128.43994"
           id="text1-3-7"><tspan
             sodipodi:role="line"
             style="font-style:normal;font-variant:normal;font-weight:normal;font-stretch:normal;font-size:11.2889px;font-family:'Luckiest Guy';-inkscape-font-specification:'Luckiest Guy';text-align:center;text-anchor:middle;stroke:none;stroke-width:0.264583"
             x="122.30926"
             y="128.43994"
             id="tspan5-2-8">ALPHA</tspan></text>
        <text
           xml:space="preserve"
           style="font-size:22.5778px;text-align:center;letter-spacing:0px;word-spacing:0px;writing-mode:lr-tb;direction:ltr;text-anchor:middle;fill:#000000;stroke:none;stroke-width:0.264583"
           x="161.81256"
           y="128.5116"
           id="text1-3-6"><tspan
             sodipodi:role="line"
             style="font-style:normal;font-variant:normal;font-weight:normal;font-stretch:normal;font-size:11.2889px;font-family:'Luckiest Guy';-inkscape-font-specification:'Luckiest Guy';text-align:center;text-anchor:middle;stroke:none;stroke-width:0.264583"
             x="161.81256"
             y="128.5116"
             id="tspan5-2-1">SIERRA</tspan></text>
      </g>
    </g>
    <g
       id="g17"
       style="display:inline;fill:#f9f9f9;stroke:#000000;stroke-width:2.64583;stroke-linecap:round;stroke-linejoin:round;stroke-dasharray:none;stroke-opacity:1;paint-order:stroke fill markers"
       transform="translate(-8.8234921,-66.083609)">
      <g
         id="g12"
         style="fill:url(#linearGradient2);stroke:#000000;stroke-width:2.64583;stroke-linecap:round;stroke-linejoin:round;stroke-dasharray:none;stroke-opacity:1;paint-order:stroke fill markers">
        <path
           style="font-size:50.8px;font-family:'Luckiest Guy';-inkscape-font-specification:'Luckiest Guy';text-align:center;letter-spacing:0px;word-spacing:0px;text-anchor:middle;fill:url(#linearGradient3);stroke:#000000;stroke-width:2.64583;stroke-linecap:round;stroke-linejoin:round;stroke-dasharray:none;stroke-opacity:1;paint-order:stroke fill markers"
           d="m 52.975791,80.428994 -0.248047,10.517187 -7.391797,0.297656 -1.885156,23.514843 -10.467578,0.5457 0.04961,-23.51484 -7.391797,0.396875 0.297656,-11.707812 z"
           id="text9"
           aria-label="T" />
        <path
           style="font-size:50.8px;font-family:'Luckiest Guy';-inkscape-font-specification:'Luckiest Guy';text-align:center;letter-spacing:0px;word-spacing:0px;text-anchor:middle;fill:url(#linearGradient4);stroke:#000000;stroke-width:2.64583;stroke-linecap:round;stroke-linejoin:round;stroke-dasharray:none;stroke-opacity:1;paint-order:stroke fill markers"
           d="m 91.864783,95.088571 q 0,1.463477 0,2.902149 0,1.438672 -0.148829,2.90215 -0.272851,3.10058 -1.339453,5.87871 -1.066601,2.75332 -2.902148,4.83691 -1.810742,2.0836 -4.415234,3.29903 -2.604493,1.21543 -5.97793,1.21543 -1.314648,0 -2.75332,-0.22325 -1.413867,-0.22324 -2.827735,-0.66972 -1.389062,-0.44649 -2.678906,-1.09141 -1.265039,-0.66973 -2.257226,-1.53789 l 1.53789,-10.26914 q 1.463477,1.41387 3.249414,2.30684 1.785938,0.86816 3.894336,0.86816 1.364258,0 2.306836,-0.39687 0.942578,-0.39688 1.562695,-1.09141 0.620118,-0.69453 0.967383,-1.61231 0.37207,-0.94257 0.520899,-1.98437 0.173632,-1.066602 0.198437,-2.182813 0.04961,-1.116211 0.04961,-2.207617 0,-3.943946 -0.396875,-7.838282 -0.396875,-3.91914 -0.694531,-7.838281 l 11.360547,-0.74414 q 0.744141,7.739062 0.74414,15.478124 z"
           id="text10"
           aria-label="J" />
        <path
           style="font-size:50.8px;font-family:'Luckiest Guy';-inkscape-font-specification:'Luckiest Guy';text-align:center;letter-spacing:0px;word-spacing:0px;text-anchor:middle;fill:url(#linearGradient5);stroke:#000000;stroke-width:2.64583;stroke-linecap:round;stroke-linejoin:round;stroke-dasharray:none;stroke-opacity:1;paint-order:stroke fill markers"
           d="m 138.9725,113.76649 -12.30313,1.5875 -1.48828,-5.60586 h -5.65547 l -1.24023,5.60586 -12.65039,-1.24023 9.87226,-33.039844 13.79141,-0.694532 z m -14.68438,-11.60859 -1.88515,-8.632031 -1.83555,8.632031 z"
           id="text11"
           aria-label="A" />
        <path
           style="font-size:50.8px;font-family:'Luckiest Guy';-inkscape-font-specification:'Luckiest Guy';text-align:center;letter-spacing:0px;word-spacing:0px;text-anchor:middle;fill:url(#linearGradient6);stroke:#000000;stroke-width:2.64583;stroke-linecap:round;stroke-linejoin:round;stroke-dasharray:none;stroke-opacity:1;paint-order:stroke fill markers"
           d="m 174.96731,102.87724 q 0,3.39824 -1.19063,5.95313 -1.16582,2.53007 -3.22461,4.21679 -2.03398,1.68672 -4.7873,2.53008 -2.72852,0.84336 -5.87871,0.84336 -1.21543,0 -2.67891,-0.32246 -1.43867,-0.32246 -2.92695,-0.79375 -1.48828,-0.4961 -2.87735,-1.0418 -1.36425,-0.57051 -2.43086,-1.0666 l 1.09141,-10.21953 q 2.1084,1.26504 4.66328,1.93476 2.57969,0.64493 5.06016,0.64493 0.47129,0 1.14101,-0.0248 0.66973,-0.0496 1.26504,-0.22324 0.62012,-0.19844 1.0418,-0.57051 0.42168,-0.37207 0.42168,-1.0666 0,-0.47129 -0.29766,-0.79375 -0.29765,-0.34727 -0.76894,-0.5457 -0.47129,-0.22325 -1.0666,-0.32246 -0.59532,-0.12403 -1.16582,-0.17364 -0.57051,-0.0496 -1.06661,-0.0496 -0.49609,0 -0.79375,0 -2.1332,0 -3.89433,-0.74414 -1.73633,-0.74414 -3.00137,-2.058786 -1.24023,-1.339453 -1.93476,-3.150195 -0.69454,-1.835547 -0.69454,-3.96875 0,-2.926953 1.16582,-5.233789 1.19063,-2.33164 3.1502,-3.943945 1.98437,-1.637109 4.53926,-2.505274 2.55488,-0.868164 5.2834,-0.868164 1.21543,0 2.50527,0.09922 1.28984,0.07441 2.55488,0.297656 1.28985,0.223243 2.50528,0.570508 1.21543,0.347266 2.30683,0.868164 l -0.94258,10.070703 q -1.68672,-0.570508 -3.54707,-0.942578 -1.83554,-0.396875 -3.59668,-0.396875 -0.32246,0 -0.84336,0.02481 -0.49609,0 -1.0666,0.07441 -0.5457,0.04961 -1.11621,0.173633 -0.57051,0.124023 -1.01699,0.347265 -0.44649,0.198438 -0.71934,0.545703 -0.27285,0.347266 -0.24804,0.818555 0.0248,0.545703 0.39687,0.892969 0.39688,0.322461 0.99219,0.520898 0.62012,0.173633 1.33945,0.248047 0.74414,0.07441 1.46348,0.09922 0.71933,0 1.33945,0 0.62012,-0.02481 1.01699,0.02481 1.98438,0.124023 3.57188,0.843359 1.5875,0.719336 2.67891,1.909961 1.11621,1.190625 1.68671,2.852539 0.59532,1.637116 0.59532,3.621486 z"
           id="text12"
           aria-label="S" />
      </g>
      <g
         id="g16"
         style="fill:#f9f9f9;stroke:#000000;stroke-width:2.64583;stroke-linecap:round;stroke-linejoin:round;stroke-dasharray:none;stroke-opacity:1;paint-order:stroke fill markers">
        <path
           style="font-size:11.2889px;font-family:'Luckiest Guy';-inkscape-font-specification:'Luckiest Guy';text-align:center;letter-spacing:0px;word-spacing:0px;text-anchor:middle;fill:#f9f9f9;stroke:#000000;stroke-width:2.64583;stroke-linecap:round;stroke-linejoin:round;stroke-dasharray:none;stroke-opacity:1;paint-order:stroke fill markers"
           d="m 28.126996,120.5796 -0.05512,2.33716 -1.642623,0.0661 -0.418924,5.22553 -2.326131,0.12127 0.01103,-5.22553 -1.642624,0.0882 0.06615,-2.60174 z m 6.493322,7.40834 -2.73403,0.35278 -0.33073,-1.24574 h -1.256772 l -0.275608,1.24574 -2.8112,-0.27561 2.193839,-7.34219 3.06476,-0.15434 z m -3.263197,-2.57969 -0.418924,-1.91823 -0.4079,1.91823 z m 10.875488,-4.85069 -0.396876,7.47448 -2.888371,0.26459 -1.543404,-4.00183 -0.242535,4.079 h -2.480471 l 0.198437,-7.81624 2.756079,-0.1323 1.907207,3.96876 0.08819,-3.74827 z m 7.099659,6.77995 q -0.259071,0.32522 -0.63941,0.56775 -0.380339,0.24254 -0.8158,0.40239 -0.43546,0.15985 -0.892969,0.23702 -0.457509,0.0827 -0.870921,0.0827 -0.799263,0 -1.471747,-0.28664 -0.672483,-0.28663 -1.163065,-0.78824 -0.48507,-0.50711 -0.760678,-1.19062 -0.275608,-0.68351 -0.275608,-1.47175 0,-0.60082 0.137804,-1.17409 0.137804,-0.57877 0.391363,-1.08589 0.259072,-0.51263 0.628386,-0.93707 0.369315,-0.42995 0.837849,-0.73863 0.468533,-0.30868 1.025261,-0.47956 0.556728,-0.17087 1.190626,-0.17087 0.237023,0 0.507119,0.022 0.270096,0.0165 0.534679,0.0661 0.270096,0.0441 0.523655,0.12678 0.25356,0.0827 0.463022,0.20395 l -0.154341,2.10564 q -0.308681,-0.11575 -0.63941,-0.15434 -0.325218,-0.0441 -0.639411,-0.0441 -0.440972,0 -0.826823,0.1378 -0.380339,0.13229 -0.666972,0.38585 -0.28112,0.25356 -0.446484,0.61736 -0.165365,0.36381 -0.165365,0.82132 0,0.28663 0.07717,0.55672 0.07717,0.26459 0.231511,0.47405 0.159852,0.20395 0.391363,0.33073 0.237023,0.12678 0.545704,0.12678 0.209462,0 0.429948,-0.0551 0.225998,-0.0551 0.385851,-0.18742 l 0.02205,-0.42995 -1.322918,-0.022 0.06615,-1.65365 q 0.821311,-0.0276 1.642623,-0.0441 0.821311,-0.0221 1.653647,-0.0551 z m 7.231952,-2.7671 q 0,0.5016 -0.115755,0.97014 -0.115755,0.46302 -0.336241,0.87092 -0.214975,0.4079 -0.529168,0.74965 -0.308681,0.33624 -0.700044,0.57878 -0.385851,0.24253 -0.84336,0.38034 -0.457509,0.13229 -0.97014,0.13229 -0.496094,0 -0.948091,-0.12678 -0.446485,-0.12678 -0.837848,-0.35278 -0.391363,-0.23151 -0.711069,-0.55122 -0.314193,-0.32521 -0.540191,-0.71658 -0.220487,-0.39687 -0.347266,-0.84887 -0.121268,-0.452 -0.121268,-0.94258 0,-0.47956 0.115756,-0.93706 0.115755,-0.46303 0.330729,-0.87093 0.220487,-0.4079 0.529167,-0.74965 0.308681,-0.34175 0.68902,-0.5898 0.385851,-0.24805 0.832336,-0.38585 0.446485,-0.1378 0.942579,-0.1378 0.799263,0 1.45521,0.24804 0.661459,0.24805 1.12448,0.71107 0.468534,0.45751 0.722093,1.11346 0.259071,0.65043 0.259071,1.45521 z m -2.447398,0.14331 q 0,-0.23702 -0.07166,-0.45751 -0.06615,-0.22599 -0.198438,-0.39687 -0.132291,-0.17639 -0.330729,-0.28112 -0.192926,-0.11025 -0.446485,-0.11025 -0.259071,0 -0.463021,0.0937 -0.20395,0.0937 -0.352778,0.25907 -0.143316,0.15986 -0.220487,0.38034 -0.07717,0.21498 -0.07717,0.45751 0,0.23151 0.06615,0.46302 0.06615,0.23151 0.198438,0.41893 0.132291,0.18741 0.325217,0.30317 0.198438,0.11575 0.457509,0.11575 0.259072,0 0.463021,-0.0992 0.209462,-0.10473 0.352779,-0.27561 0.143316,-0.17639 0.220486,-0.40238 0.07717,-0.226 0.07717,-0.46854 z"
           id="text13"
           aria-label="TANGO" />
        <path
           style="font-size:11.2889px;font-family:'Luckiest Guy';-inkscape-font-specification:'Luckiest Guy';text-align:center;letter-spacing:0px;word-spacing:0px;text-anchor:middle;fill:#f9f9f9;stroke:#000000;stroke-width:2.64583;stroke-linecap:round;stroke-linejoin:round;stroke-dasharray:none;stroke-opacity:1;paint-order:stroke fill markers"
           d="m 68.416072,123.78768 q 0,0.32522 0,0.64492 0,0.31971 -0.03307,0.64492 -0.06063,0.68902 -0.297656,1.30638 -0.237023,0.61185 -0.644923,1.07488 -0.402387,0.46302 -0.981164,0.73311 -0.578777,0.2701 -1.32843,0.2701 -0.292145,0 -0.61185,-0.0496 -0.314193,-0.0496 -0.628386,-0.14883 -0.308681,-0.0992 -0.595313,-0.24253 -0.28112,-0.14883 -0.501606,-0.34176 l 0.341754,-2.28203 q 0.325217,0.31419 0.722092,0.51263 0.396876,0.19292 0.865409,0.19292 0.303169,0 0.512631,-0.0882 0.209462,-0.0882 0.347266,-0.24253 0.137804,-0.15435 0.214974,-0.3583 0.08268,-0.20946 0.115755,-0.44097 0.03858,-0.23702 0.0441,-0.48507 0.01102,-0.24804 0.01102,-0.49058 0,-0.87643 -0.08819,-1.74184 -0.08819,-0.87092 -0.15434,-1.74184 l 2.524568,-0.16537 q 0.165365,1.71979 0.165365,3.43959 z m 7.083124,-1.5875 q 0,0.4079 -0.03858,0.89848 -0.03858,0.49058 -0.12678,1.01424 -0.08819,0.52365 -0.23151,1.06384 -0.137804,0.53468 -0.347266,1.03078 -0.209462,0.49609 -0.490583,0.93155 -0.275607,0.42995 -0.63941,0.75517 -0.35829,0.3197 -0.804775,0.5016 -0.446485,0.18742 -0.992189,0.18742 -0.63941,0 -1.113456,-0.20947 -0.468533,-0.20395 -0.804775,-0.55121 -0.336241,-0.35278 -0.551216,-0.8158 -0.214974,-0.46853 -0.336241,-0.98668 -0.121268,-0.52365 -0.170877,-1.06384 -0.0441,-0.54571 -0.0441,-1.04731 0,-0.77171 0.07717,-1.5379 0.07717,-0.7717 0.220486,-1.53789 l 2.57969,0.0992 q -0.148828,0.86541 -0.259071,1.74184 -0.104731,0.87092 -0.104731,1.75287 0,0.0937 0.0055,0.28112 0.01102,0.1819 0.03307,0.41341 0.02205,0.226 0.06063,0.46853 0.0441,0.23703 0.115755,0.43546 0.07166,0.19844 0.170877,0.32522 0.104731,0.12678 0.242535,0.12678 0.159853,0 0.286632,-0.14883 0.12678,-0.15434 0.220486,-0.4079 0.09922,-0.25356 0.170877,-0.58429 0.07166,-0.33072 0.121268,-0.68902 0.04961,-0.35829 0.07717,-0.71658 0.03307,-0.35829 0.04961,-0.66697 0.02205,-0.30868 0.02756,-0.5457 0.0055,-0.23702 0.0055,-0.35278 0,-0.42995 -0.01654,-0.85438 -0.01102,-0.42995 -0.03859,-0.85439 h 2.57969 q 0.06615,0.76068 0.06615,1.54341 z m 5.28616,2.98759 -0.23151,2.44739 -4.641238,0.36381 q 0.03307,-1.92375 0.07166,-3.82544 0.0441,-1.9017 0.104731,-3.82544 h 2.866323 q -0.12678,1.20716 -0.242535,2.41433 -0.115756,1.20165 -0.165365,2.42535 0.259071,0.011 0.512631,0.011 0.253559,0 0.51263,0 0.308681,0 0.606338,-0.006 0.297656,-0.006 0.606337,-0.006 z m 3.235636,-4.61919 -0.606337,7.50756 -2.326131,0.12126 v -7.47448 z m 5.600354,-0.18742 q -0.03307,0.51815 -0.06063,1.02527 -0.02756,0.50711 -0.07166,1.02526 l -2.337155,0.12126 -0.05512,0.69454 H 88.7394 l -0.121267,1.70877 -1.653648,0.0551 -0.05512,0.80477 h 1.367015 0.97014 q -0.03307,0.60634 -0.07166,1.20717 -0.03307,0.59531 -0.06063,1.19613 l -4.751481,0.11025 0.17639,-7.94854 z m 6.013764,0.0662 -0.05512,2.33716 -1.642623,0.0661 -0.418924,5.22553 -2.326131,0.12126 0.01102,-5.22552 -1.642623,0.0882 0.06615,-2.60174 z"
           id="text14"
           aria-label="JULIET" />
        <path
           style="font-size:11.2889px;font-family:'Luckiest Guy';-inkscape-font-specification:'Luckiest Guy';text-align:center;letter-spacing:0px;word-spacing:0px;text-anchor:middle;fill:#f9f9f9;stroke:#000000;stroke-width:2.64583;stroke-linecap:round;stroke-linejoin:round;stroke-dasharray:none;stroke-opacity:1;paint-order:stroke fill markers"
           d="m 113.02678,127.9659 -2.73403,0.35277 -0.33073,-1.24574 h -1.25677 l -0.27561,1.24574 -2.8112,-0.2756 2.19384,-7.3422 3.06476,-0.15434 z m -3.26319,-2.57969 -0.41893,-1.91824 -0.4079,1.91824 z m 8.22414,-0.0882 -0.23152,2.4474 -4.64123,0.3638 q 0.0331,-1.92374 0.0717,-3.82544 0.0441,-1.90169 0.10473,-3.82543 h 2.86632 q -0.12678,1.20716 -0.24254,2.41432 -0.11575,1.20165 -0.16536,2.42535 0.25907,0.011 0.51263,0.011 0.25356,0 0.51263,0 0.30868,0 0.60634,-0.006 0.29765,-0.006 0.60634,-0.006 z m 6.68073,-2.16076 q 0,0.53467 -0.15985,0.94809 -0.15985,0.41341 -0.44097,0.72209 -0.27561,0.30868 -0.65044,0.52365 -0.37483,0.21498 -0.80477,0.35278 -0.42444,0.13229 -0.88195,0.19844 -0.45751,0.0606 -0.89848,0.0661 v 2.56866 h -2.56867 q 0,-1.26228 0.006,-2.51354 0.006,-1.25126 0.0165,-2.52457 0.011,-0.67248 0.006,-1.34497 -0.006,-0.67248 0.0276,-1.35599 0.70556,-0.20946 1.41112,-0.31419 0.70555,-0.10473 1.45521,-0.10473 0.42443,0 0.84887,0.0717 0.42444,0.0661 0.81029,0.21497 0.39136,0.14883 0.72209,0.37483 0.33624,0.22048 0.57878,0.52916 0.24253,0.30868 0.38033,0.70556 0.14332,0.39136 0.14332,0.88195 z m -2.4474,0.18741 q 0,-0.35829 -0.22048,-0.55673 -0.21498,-0.20395 -0.56224,-0.20395 -0.11576,0 -0.24254,0.022 -0.12127,0.0165 -0.23151,0.0441 l -0.0662,1.60955 q 0.0772,0.011 0.14883,0.011 0.0717,0 0.14883,0 0.19844,0 0.38034,-0.0661 0.18741,-0.0662 0.33073,-0.18742 0.14332,-0.12678 0.226,-0.29214 0.0882,-0.17088 0.0882,-0.38034 z m 9.2935,5.11528 -2.75608,0.13229 -0.022,-2.54661 h -1.26779 l -0.0772,2.41432 h -2.46945 l 0.20946,-7.75009 2.62379,0.12126 -0.16536,3.95773 h 1.22369 l 0.011,-4.25538 2.51354,0.0661 z m 7.47449,-0.47404 -2.73403,0.35277 -0.33073,-1.24574 h -1.25677 l -0.27561,1.24574 -2.8112,-0.2756 2.19384,-7.3422 3.06476,-0.15434 z m -3.2632,-2.57969 -0.41892,-1.91824 -0.4079,1.91824 z"
           id="text15"
           aria-label="ALPHA" />
        <path
           style="font-size:11.2889px;font-family:'Luckiest Guy';-inkscape-font-specification:'Luckiest Guy';text-align:center;letter-spacing:0px;word-spacing:0px;text-anchor:middle;fill:#f9f9f9;stroke:#000000;stroke-width:2.64583;stroke-linecap:round;stroke-linejoin:round;stroke-dasharray:none;stroke-opacity:1;paint-order:stroke fill markers"
           d="m 149.98623,125.57913 q 0,0.75516 -0.26459,1.32292 -0.25907,0.56224 -0.71658,0.93706 -0.452,0.37483 -1.06385,0.56224 -0.60633,0.18742 -1.30638,0.18742 -0.27009,0 -0.59531,-0.0717 -0.31971,-0.0717 -0.65043,-0.17639 -0.33073,-0.11024 -0.63942,-0.23151 -0.30316,-0.12678 -0.54019,-0.23702 l 0.24254,-2.27101 q 0.46853,0.28112 1.03628,0.42995 0.57327,0.14331 1.12448,0.14331 0.10474,0 0.25356,-0.006 0.14883,-0.011 0.28112,-0.0496 0.13781,-0.0441 0.23151,-0.12678 0.0937,-0.0827 0.0937,-0.23702 0,-0.10473 -0.0661,-0.17639 -0.0661,-0.0772 -0.17088,-0.12127 -0.10473,-0.0496 -0.23702,-0.0717 -0.1323,-0.0276 -0.25908,-0.0386 -0.12678,-0.011 -0.23702,-0.011 -0.11024,0 -0.17639,0 -0.47404,0 -0.86541,-0.16536 -0.38585,-0.16537 -0.66697,-0.45751 -0.27561,-0.29766 -0.42995,-0.70004 -0.15434,-0.4079 -0.15434,-0.88195 0,-0.65043 0.25907,-1.16307 0.26459,-0.51814 0.70005,-0.87643 0.44097,-0.3638 1.00872,-0.55673 0.56776,-0.19292 1.17409,-0.19292 0.2701,0 0.55673,0.0221 0.28663,0.0165 0.56775,0.0661 0.28664,0.0496 0.55673,0.12678 0.2701,0.0772 0.51263,0.19293 l -0.20946,2.23793 q -0.37483,-0.12678 -0.78824,-0.20946 -0.4079,-0.0882 -0.79926,-0.0882 -0.0717,0 -0.18741,0.006 -0.11025,0 -0.23703,0.0165 -0.12126,0.011 -0.24804,0.0386 -0.12678,0.0276 -0.226,0.0772 -0.0992,0.0441 -0.15986,0.12127 -0.0606,0.0772 -0.0551,0.1819 0.006,0.12127 0.0882,0.19844 0.0882,0.0717 0.22048,0.11575 0.13781,0.0386 0.29766,0.0551 0.16537,0.0165 0.32522,0.022 0.15985,0 0.29765,0 0.13781,-0.006 0.226,0.006 0.44098,0.0276 0.79375,0.18741 0.35278,0.15985 0.59532,0.42444 0.24804,0.26458 0.37482,0.63389 0.1323,0.36381 0.1323,0.80478 z m 3.32383,-4.82865 -0.60634,7.50756 -2.32613,0.12126 v -7.47448 z m 5.60035,-0.18742 q -0.0331,0.51815 -0.0606,1.02527 -0.0276,0.50711 -0.0717,1.02526 l -2.33716,0.12126 -0.0551,0.69454 h 1.64263 l -0.12127,1.70877 -1.65365,0.0551 -0.0551,0.80477 h 1.36701 0.97014 q -0.0331,0.60634 -0.0717,1.20717 -0.0331,0.59531 -0.0606,1.19613 l -4.75148,0.11025 0.17639,-7.94854 z m 6.64766,2.63482 q 0,0.42994 -0.0772,0.78272 -0.0717,0.34727 -0.23151,0.63941 -0.15985,0.29215 -0.41341,0.54019 -0.25356,0.24805 -0.61185,0.47405 l 1.31189,2.33716 -2.48047,0.48507 -0.84887,-2.34818 -0.68351,0.022 -0.0992,2.29306 h -2.37022 q 0.0276,-1.25677 0.0496,-2.50252 0.0276,-1.24575 0.0606,-2.50252 0.011,-0.6339 0.0221,-1.25677 0.011,-0.62287 0.0441,-1.25677 0.38585,-0.14332 0.76067,-0.23702 0.37483,-0.0937 0.74966,-0.14332 0.38034,-0.0551 0.76619,-0.0717 0.39136,-0.0221 0.79926,-0.0221 0.62839,0 1.21267,0.17639 0.58981,0.17088 1.0418,0.51814 0.452,0.34727 0.72209,0.86541 0.27561,0.51815 0.27561,1.20717 z m -2.46944,0.17639 q 0,-0.23152 -0.0661,-0.42444 -0.0606,-0.19293 -0.18741,-0.33073 -0.12127,-0.14332 -0.30868,-0.22049 -0.18191,-0.0827 -0.42995,-0.0827 -0.11025,0 -0.21498,0.0165 -0.10473,0.011 -0.20395,0.0386 l -0.0882,2.05053 h 0.13229 q 0.23702,0 0.47956,-0.0606 0.24805,-0.0606 0.44097,-0.18741 0.19844,-0.12678 0.31971,-0.32522 0.12678,-0.19844 0.12678,-0.47404 z m 9.31003,-0.17639 q 0,0.42994 -0.0772,0.78272 -0.0717,0.34727 -0.23151,0.63941 -0.15985,0.29215 -0.41341,0.54019 -0.25356,0.24805 -0.61185,0.47405 l 1.31189,2.33716 -2.48047,0.48507 -0.84887,-2.34818 -0.68351,0.022 -0.0992,2.29306 h -2.37022 q 0.0276,-1.25677 0.0496,-2.50252 0.0276,-1.24575 0.0606,-2.50252 0.011,-0.6339 0.0221,-1.25677 0.011,-0.62287 0.0441,-1.25677 0.38586,-0.14332 0.76068,-0.23702 0.37483,-0.0937 0.74966,-0.14332 0.38033,-0.0551 0.76619,-0.0717 0.39136,-0.0221 0.79926,-0.0221 0.62838,0 1.21267,0.17639 0.5898,0.17088 1.0418,0.51814 0.452,0.34727 0.72209,0.86541 0.27561,0.51815 0.27561,1.20717 z m -2.46944,0.17639 q 0,-0.23152 -0.0661,-0.42444 -0.0606,-0.19293 -0.18741,-0.33073 -0.12127,-0.14332 -0.30868,-0.22049 -0.18191,-0.0827 -0.42995,-0.0827 -0.11025,0 -0.21498,0.0165 -0.10473,0.011 -0.20395,0.0386 l -0.0882,2.05053 h 0.13229 q 0.23702,0 0.47956,-0.0606 0.24805,-0.0606 0.44097,-0.18741 0.19844,-0.12678 0.31971,-0.32522 0.12678,-0.19844 0.12678,-0.47404 z m 9.80061,4.66328 -2.73403,0.35278 -0.33073,-1.24575 h -1.25677 l -0.27561,1.24575 -2.8112,-0.27561 2.19384,-7.34219 3.06476,-0.15434 z m -3.2632,-2.57969 -0.41892,-1.91823 -0.4079,1.91823 z"
           id="text16"
           aria-label="SIERRA" />
      </g>
    </g>
  </g>
</svg>
